<svg id="Layer_1" data-name="Layer 1" xmlns="http://www.w3.org/2000/svg" viewBox="0 0 85.04 85.04"><defs><style>.cls-1{fill:#f8cc67;}.cls-2{fill:#fa8934;}.cls-3{fill:#696866;}</style></defs><title>Artboard 1</title><path class="cls-1" d="M47.53,2.26h4.72c.15.2.37.13.57.16A18.91,18.91,0,0,1,61,5.28a21,21,0,0,1,8.32,11.43c.37,1.08.64,2.2,1,3.3-.31,0-.42.29-.57.5a15.4,15.4,0,0,1-4.25,4.11c-1.14.74-2.39,1.29-3.58,1.95a3.42,3.42,0,0,0-1,5.17,16.25,16.25,0,0,0,1.64,1.57c.76.63,1.72,1,2.43,1.67a14.28,14.28,0,0,0-2.1,4.69A6.9,6.9,0,0,0,65,47a13.6,13.6,0,0,1,3,3.71,18.34,18.34,0,0,1,.12,17.49c-2.72,5.36-7.07,9.16-12.27,12a19.54,19.54,0,0,1-10.37,2.58c-3.46-.13-6.92,0-10.37,0a44.22,44.22,0,0,1-8.59-.79A29,29,0,0,1,12,75.1C3.41,67.13.8,57.19,3.09,45.87a18.58,18.58,0,0,1,6-10.31c.71-.63.73-.61,1.17.26a22.94,22.94,0,0,0,6.27,7.86c4.27,3.41,9.17,4.37,14.49,3.62A11.43,11.43,0,0,0,35.16,46a4.11,4.11,0,0,0,2.3-4.2A10.85,10.85,0,0,0,35,36a28.26,28.26,0,0,1-2.93-4.18,19.65,19.65,0,0,1-1.5-14.42C32.64,9.52,37.48,4.31,45.72,2.63A6,6,0,0,0,47.53,2.26ZM62.6,14.83a2.52,2.52,0,1,0,2.53,2.48A2.54,2.54,0,0,0,62.6,14.83Z"/><path class="cls-2" d="M70.31,20a11.74,11.74,0,0,0,7.06,2.37c.91,0,1.82,0,2.74.08a3.06,3.06,0,0,1,2.63,1.65v1.1a7.55,7.55,0,0,1-1.95,2.22A38.7,38.7,0,0,1,67,34.69,9.2,9.2,0,0,1,65,35c-.71-.7-1.67-1-2.43-1.67a16.25,16.25,0,0,1-1.64-1.57,3.42,3.42,0,0,1,1-5.17c1.19-.66,2.44-1.21,3.58-1.95a15.4,15.4,0,0,0,4.25-4.11C69.89,20.3,70,20,70.31,20Z"/><path class="cls-3" d="M62.6,14.83a2.52,2.52,0,1,1-2.5,2.51A2.54,2.54,0,0,1,62.6,14.83Z"/></svg>